<svg version="1.1" id="Layer_1" xmlns="http://www.w3.org/2000/svg" xmlns:xlink="http://www.w3.org/1999/xlink" x="0px" y="0px"
	 width="100%" viewBox="0 0 180 180" enable-background="new 0 0 180 180" xml:space="preserve">
<path fill="#219DEE" opacity="1.000000" stroke="none" 
	d="
M181.000000,72.000000 
	C181.000000,84.354225 181.000000,96.708458 180.629547,109.282227 
	C179.861633,110.004051 179.199936,110.461136 179.105164,111.015190 
	C176.358810,127.070358 168.601227,140.738281 157.830887,152.475952 
	C145.228836,166.209854 129.737106,175.553635 111.126656,179.127762 
	C110.648872,179.219543 110.371071,180.352570 110.000000,181.000000 
	C97.312439,181.000000 84.624878,181.000000 71.731750,180.641083 
	C71.026482,179.878296 70.578415,179.221573 70.019547,179.107452 
	C55.162815,176.073563 42.152508,169.088348 30.926439,159.254181 
	C16.577875,146.684662 7.139325,130.852554 2.871840,112.095833 
	C2.762114,111.613564 1.646501,111.360146 1.000000,111.000000 
	C1.000000,97.979103 1.000000,84.958214 1.358858,71.731926 
	C2.137103,70.861046 2.676071,70.242302 2.957300,69.522812 
	C5.645326,62.645855 8.289755,55.751858 11.088648,49.239906 
	C11.864168,56.581890 13.670874,57.415150 19.576389,53.401398 
	C21.227989,52.278873 22.728561,50.931225 24.396320,49.835926 
	C29.609001,46.412506 34.043694,48.121750 34.876072,54.273285 
	C35.404686,58.179882 35.367500,62.312431 34.725285,66.201859 
	C32.124413,81.953506 28.745087,97.588165 26.545317,113.390213 
	C25.203276,123.030762 24.872995,132.921661 25.252008,142.654800 
	C25.516258,149.440811 30.052320,151.589828 36.647419,149.596954 
	C47.754524,146.240692 51.493351,140.854843 49.376556,129.488327 
	C47.589111,119.890327 46.183914,110.487656 49.884617,101.065514 
	C54.488708,89.343292 58.357273,77.254250 63.983852,66.046745 
	C66.527931,60.979229 72.032265,56.777218 77.133354,53.784225 
	C82.505974,50.631920 86.904556,53.391106 87.979652,59.597198 
	C88.678314,63.630318 89.253426,68.015106 88.414459,71.927223 
	C84.757690,88.978706 80.535614,105.908440 76.575768,122.895668 
	C74.847687,130.308884 72.315735,137.659973 75.033485,145.426620 
	C76.266670,148.950760 78.492264,150.428146 82.192871,150.215637 
	C91.418953,149.685837 97.620628,142.132996 96.403961,132.915634 
	C96.057198,130.288528 95.809959,127.582138 96.034729,124.956421 
	C97.584656,106.851051 104.349281,90.792603 115.790001,76.774368 
	C117.916161,74.169189 120.917999,71.917328 123.980598,70.525017 
	C128.249374,68.584373 131.085831,70.431686 130.903946,75.107460 
	C130.672760,81.050179 129.923065,87.050667 128.638367,92.858459 
	C125.840256,105.508141 122.166885,117.971764 119.602638,130.663254 
	C117.491661,141.111389 125.784958,149.852188 136.153931,148.525970 
	C151.531067,146.559219 162.548004,138.152527 169.356262,124.354599 
	C170.475204,122.086891 170.701492,119.206451 170.683334,116.613792 
	C170.672241,115.028450 169.407623,113.451866 168.705994,111.871346 
	C167.322235,112.644646 165.735977,113.193901 164.589630,114.229912 
	C159.529282,118.803238 154.761154,123.716393 149.518982,128.062347 
	C147.865601,129.433075 144.441681,130.544525 142.965546,129.725235 
	C141.488129,128.905243 140.572067,125.385361 140.908386,123.289368 
	C142.117889,115.751465 143.928665,108.308151 145.571213,100.842064 
	C148.254883,88.643509 151.221252,76.486908 149.048508,63.823139 
	C147.755295,56.285610 143.131302,50.678860 136.393631,49.359097 
	C127.765945,47.669121 119.808037,49.199108 113.107178,55.290104 
	C111.168182,57.052612 109.339500,58.936462 106.807388,61.399811 
	C106.509911,57.611103 106.332779,54.541767 106.017891,51.486626 
	C104.705765,38.755802 97.315216,32.082836 84.595505,31.828693 
	C74.755890,31.632093 67.367180,36.149025 61.403404,43.486473 
	C59.279236,46.099907 57.429958,48.936760 55.159687,52.080891 
	C54.812347,50.123730 54.549824,48.821941 54.353455,47.510254 
	C52.608719,35.855953 47.063904,30.912628 35.323708,32.308628 
	C29.408566,33.011982 23.755468,35.919140 17.983387,37.479267 
	C19.645975,34.929836 21.138590,32.573566 22.999582,30.557308 
	C35.847919,16.637028 51.316841,7.122961 69.901062,2.872197 
	C70.384811,2.761550 70.638840,1.646591 71.000000,0.999999 
	C83.687561,1.000000 96.375122,1.000000 109.282211,1.370457 
	C110.004036,2.138375 110.461121,2.800085 111.015190,2.894860 
	C127.070358,5.641194 140.738281,13.398784 152.475937,24.169113 
	C166.209839,36.771172 175.553665,52.262878 179.127747,70.873367 
	C179.219498,71.351143 180.352570,71.628944 181.000000,72.000000 
z"/>
<path fill="#000000" opacity="1.000000" stroke="none" 
	d="
M181.000000,71.531342 
	C180.352570,71.628944 179.219498,71.351143 179.127747,70.873367 
	C175.553665,52.262878 166.209839,36.771172 152.475937,24.169113 
	C140.738281,13.398784 127.070358,5.641194 111.015190,2.894860 
	C110.461121,2.800085 110.004036,2.138375 109.750870,1.370457 
	C133.593521,1.000000 157.187027,1.000000 181.000000,1.000000 
	C181.000000,24.353769 181.000000,47.708225 181.000000,71.531342 
z"/>
<path fill="#000000" opacity="1.000000" stroke="none" 
	d="
M110.468658,181.000000 
	C110.371071,180.352570 110.648872,179.219543 111.126656,179.127762 
	C129.737106,175.553635 145.228836,166.209854 157.830887,152.475952 
	C168.601227,140.738281 176.358810,127.070358 179.105164,111.015190 
	C179.199936,110.461136 179.861633,110.004051 180.629547,109.750885 
	C181.000000,133.593521 181.000000,157.187042 181.000000,181.000000 
	C157.646225,181.000000 134.291779,181.000000 110.468658,181.000000 
z"/>
<path fill="#000000" opacity="1.000000" stroke="none" 
	d="
M1.000000,111.468658 
	C1.646501,111.360146 2.762114,111.613564 2.871840,112.095833 
	C7.139325,130.852554 16.577875,146.684662 30.926439,159.254181 
	C42.152508,169.088348 55.162815,176.073563 70.019547,179.107452 
	C70.578415,179.221573 71.026482,179.878296 71.263092,180.641083 
	C47.739815,181.000000 24.479630,181.000000 1.000000,181.000000 
	C1.000000,157.979568 1.000000,134.958450 1.000000,111.468658 
z"/>
<path fill="#000000" opacity="1.000000" stroke="none" 
	d="
M10.946693,48.862747 
	C8.289755,55.751858 5.645326,62.645855 2.957300,69.522812 
	C2.676071,70.242302 2.137103,70.861046 1.358858,71.263268 
	C1.000000,47.739807 1.000000,24.479618 1.000000,1.000000 
	C24.020430,1.000000 47.041557,1.000000 70.531342,0.999999 
	C70.638840,1.646591 70.384811,2.761550 69.901062,2.872197 
	C51.316841,7.122961 35.847919,16.637028 22.999582,30.557308 
	C21.138590,32.573566 19.645975,34.929836 17.662573,37.657627 
	C15.210398,41.745239 13.078546,45.303993 10.946693,48.862747 
z"/>
<path fill="#FCFDFF" opacity="1.000000" stroke="none" 
	d="
M11.088648,49.239906 
	C13.078546,45.303993 15.210398,41.745239 17.663063,38.008125 
	C23.755468,35.919140 29.408566,33.011982 35.323708,32.308628 
	C47.063904,30.912628 52.608719,35.855953 54.353455,47.510254 
	C54.549824,48.821941 54.812347,50.123730 55.159687,52.080891 
	C57.429958,48.936760 59.279236,46.099907 61.403404,43.486473 
	C67.367180,36.149025 74.755890,31.632093 84.595505,31.828693 
	C97.315216,32.082836 104.705765,38.755802 106.017891,51.486626 
	C106.332779,54.541767 106.509911,57.611103 106.807388,61.399811 
	C109.339500,58.936462 111.168182,57.052612 113.107178,55.290104 
	C119.808037,49.199108 127.765945,47.669121 136.393631,49.359097 
	C143.131302,50.678860 147.755295,56.285610 149.048508,63.823139 
	C151.221252,76.486908 148.254883,88.643509 145.571213,100.842064 
	C143.928665,108.308151 142.117889,115.751465 140.908386,123.289368 
	C140.572067,125.385361 141.488129,128.905243 142.965546,129.725235 
	C144.441681,130.544525 147.865601,129.433075 149.518982,128.062347 
	C154.761154,123.716393 159.529282,118.803238 164.589630,114.229912 
	C165.735977,113.193901 167.322235,112.644646 168.705994,111.871346 
	C169.407623,113.451866 170.672241,115.028450 170.683334,116.613792 
	C170.701492,119.206451 170.475204,122.086891 169.356262,124.354599 
	C162.548004,138.152527 151.531067,146.559219 136.153931,148.525970 
	C125.784958,149.852188 117.491661,141.111389 119.602638,130.663254 
	C122.166885,117.971764 125.840256,105.508141 128.638367,92.858459 
	C129.923065,87.050667 130.672760,81.050179 130.903946,75.107460 
	C131.085831,70.431686 128.249374,68.584373 123.980598,70.525017 
	C120.917999,71.917328 117.916161,74.169189 115.790001,76.774368 
	C104.349281,90.792603 97.584656,106.851051 96.034729,124.956421 
	C95.809959,127.582138 96.057198,130.288528 96.403961,132.915634 
	C97.620628,142.132996 91.418953,149.685837 82.192871,150.215637 
	C78.492264,150.428146 76.266670,148.950760 75.033485,145.426620 
	C72.315735,137.659973 74.847687,130.308884 76.575768,122.895668 
	C80.535614,105.908440 84.757690,88.978706 88.414459,71.927223 
	C89.253426,68.015106 88.678314,63.630318 87.979652,59.597198 
	C86.904556,53.391106 82.505974,50.631920 77.133354,53.784225 
	C72.032265,56.777218 66.527931,60.979229 63.983852,66.046745 
	C58.357273,77.254250 54.488708,89.343292 49.884617,101.065514 
	C46.183914,110.487656 47.589111,119.890327 49.376556,129.488327 
	C51.493351,140.854843 47.754524,146.240692 36.647419,149.596954 
	C30.052320,151.589828 25.516258,149.440811 25.252008,142.654800 
	C24.872995,132.921661 25.203276,123.030762 26.545317,113.390213 
	C28.745087,97.588165 32.124413,81.953506 34.725285,66.201859 
	C35.367500,62.312431 35.404686,58.179882 34.876072,54.273285 
	C34.043694,48.121750 29.609001,46.412506 24.396320,49.835926 
	C22.728561,50.931225 21.227989,52.278873 19.576389,53.401398 
	C13.670874,57.415150 11.864168,56.581890 11.088648,49.239906 
z"/>
</svg>